<svg width="310" height="178" viewBox="0 0 310 178" fill="none" xmlns="http://www.w3.org/2000/svg">
<path d="M3 176L71 80H251L295 16" stroke="#B30000" stroke-width="5"/>
<path d="M97.282 50.748V69H92.836V58.054L88.754 69H85.166L81.058 58.028V69H76.612V50.748H81.864L86.986 63.384L92.056 50.748H97.282ZM114.805 54.492V69H110.359V67.024C109.909 67.6653 109.293 68.1853 108.513 68.584C107.751 68.9653 106.901 69.156 105.965 69.156C104.856 69.156 103.877 68.9133 103.027 68.428C102.178 67.9253 101.519 67.206 101.051 66.27C100.583 65.334 100.349 64.2333 100.349 62.968V54.492H104.769V62.37C104.769 63.3407 105.021 64.0947 105.523 64.632C106.026 65.1693 106.702 65.438 107.551 65.438C108.418 65.438 109.103 65.1693 109.605 64.632C110.108 64.0947 110.359 63.3407 110.359 62.37V54.492H114.805ZM122.445 49.76V69H117.999V49.76H122.445ZM133.753 65.23V69H131.491C129.879 69 128.622 68.61 127.721 67.83C126.819 67.0327 126.369 65.7413 126.369 63.956V58.184H124.601V54.492H126.369V50.956H130.815V54.492H133.727V58.184H130.815V64.008C130.815 64.4413 130.919 64.7533 131.127 64.944C131.335 65.1347 131.681 65.23 132.167 65.23H133.753ZM138.465 52.984C137.685 52.984 137.044 52.7587 136.541 52.308C136.056 51.84 135.813 51.268 135.813 50.592C135.813 49.8987 136.056 49.3267 136.541 48.876C137.044 48.408 137.685 48.174 138.465 48.174C139.228 48.174 139.852 48.408 140.337 48.876C140.84 49.3267 141.091 49.8987 141.091 50.592C141.091 51.268 140.84 51.84 140.337 52.308C139.852 52.7587 139.228 52.984 138.465 52.984ZM140.675 54.492V69H136.229V54.492H140.675ZM148.343 56.546C148.776 55.87 149.374 55.324 150.137 54.908C150.9 54.492 151.792 54.284 152.815 54.284C154.011 54.284 155.094 54.5873 156.065 55.194C157.036 55.8007 157.798 56.6673 158.353 57.794C158.925 58.9207 159.211 60.2293 159.211 61.72C159.211 63.2107 158.925 64.528 158.353 65.672C157.798 66.7987 157.036 67.674 156.065 68.298C155.094 68.9047 154.011 69.208 152.815 69.208C151.81 69.208 150.917 69 150.137 68.584C149.374 68.168 148.776 67.6307 148.343 66.972V75.916H143.897V54.492H148.343V56.546ZM154.687 61.72C154.687 60.6107 154.375 59.744 153.751 59.12C153.144 58.4787 152.39 58.158 151.489 58.158C150.605 58.158 149.851 58.4787 149.227 59.12C148.62 59.7613 148.317 60.6367 148.317 61.746C148.317 62.8553 148.62 63.7307 149.227 64.372C149.851 65.0133 150.605 65.334 151.489 65.334C152.373 65.334 153.127 65.0133 153.751 64.372C154.375 63.7133 154.687 62.8293 154.687 61.72ZM165.99 49.76V69H161.544V49.76H165.99ZM182.888 61.512C182.888 61.928 182.862 62.3613 182.81 62.812H172.748C172.817 63.7133 173.103 64.4067 173.606 64.892C174.126 65.36 174.758 65.594 175.504 65.594C176.613 65.594 177.384 65.126 177.818 64.19H182.55C182.307 65.1433 181.865 66.0013 181.224 66.764C180.6 67.5267 179.811 68.1247 178.858 68.558C177.904 68.9913 176.838 69.208 175.66 69.208C174.238 69.208 172.973 68.9047 171.864 68.298C170.754 67.6913 169.888 66.8247 169.264 65.698C168.64 64.5713 168.328 63.254 168.328 61.746C168.328 60.238 168.631 58.9207 169.238 57.794C169.862 56.6673 170.728 55.8007 171.838 55.194C172.947 54.5873 174.221 54.284 175.66 54.284C177.064 54.284 178.312 54.5787 179.404 55.168C180.496 55.7573 181.345 56.598 181.952 57.69C182.576 58.782 182.888 60.056 182.888 61.512ZM178.338 60.342C178.338 59.5793 178.078 58.9727 177.558 58.522C177.038 58.0713 176.388 57.846 175.608 57.846C174.862 57.846 174.23 58.0627 173.71 58.496C173.207 58.9293 172.895 59.5447 172.774 60.342H178.338ZM193.813 69L191.031 64.97L188.691 69H183.881L188.665 61.59L183.751 54.492H188.743L191.525 58.496L193.865 54.492H198.675L193.813 61.798L198.805 69H193.813ZM199.634 61.72C199.634 60.2293 199.912 58.9207 200.466 57.794C201.038 56.6673 201.81 55.8007 202.78 55.194C203.751 54.5873 204.834 54.284 206.03 54.284C207.053 54.284 207.946 54.492 208.708 54.908C209.488 55.324 210.086 55.87 210.502 56.546V54.492H214.948V69H210.502V66.946C210.069 67.622 209.462 68.168 208.682 68.584C207.92 69 207.027 69.208 206.004 69.208C204.826 69.208 203.751 68.9047 202.78 68.298C201.81 67.674 201.038 66.7987 200.466 65.672C199.912 64.528 199.634 63.2107 199.634 61.72ZM210.502 61.746C210.502 60.6367 210.19 59.7613 209.566 59.12C208.96 58.4787 208.214 58.158 207.33 58.158C206.446 58.158 205.692 58.4787 205.068 59.12C204.462 59.744 204.158 60.6107 204.158 61.72C204.158 62.8293 204.462 63.7133 205.068 64.372C205.692 65.0133 206.446 65.334 207.33 65.334C208.214 65.334 208.96 65.0133 209.566 64.372C210.19 63.7307 210.502 62.8553 210.502 61.746ZM217.281 61.72C217.281 60.2293 217.558 58.9207 218.113 57.794C218.685 56.6673 219.456 55.8007 220.427 55.194C221.397 54.5873 222.481 54.284 223.677 54.284C224.63 54.284 225.497 54.4833 226.277 54.882C227.074 55.2807 227.698 55.818 228.149 56.494V49.76H232.595V69H228.149V66.92C227.733 67.6133 227.135 68.168 226.355 68.584C225.592 69 224.699 69.208 223.677 69.208C222.481 69.208 221.397 68.9047 220.427 68.298C219.456 67.674 218.685 66.7987 218.113 65.672C217.558 64.528 217.281 63.2107 217.281 61.72ZM228.149 61.746C228.149 60.6367 227.837 59.7613 227.213 59.12C226.606 58.4787 225.861 58.158 224.977 58.158C224.093 58.158 223.339 58.4787 222.715 59.12C222.108 59.744 221.805 60.6107 221.805 61.72C221.805 62.8293 222.108 63.7133 222.715 64.372C223.339 65.0133 224.093 65.334 224.977 65.334C225.861 65.334 226.606 65.0133 227.213 64.372C227.837 63.7307 228.149 62.8553 228.149 61.746ZM242.415 69.208C240.994 69.208 239.711 68.9047 238.567 68.298C237.441 67.6913 236.548 66.8247 235.889 65.698C235.248 64.5713 234.927 63.254 234.927 61.746C234.927 60.2553 235.257 58.9467 235.915 57.82C236.574 56.676 237.475 55.8007 238.619 55.194C239.763 54.5873 241.046 54.284 242.467 54.284C243.889 54.284 245.171 54.5873 246.315 55.194C247.459 55.8007 248.361 56.676 249.019 57.82C249.678 58.9467 250.007 60.2553 250.007 61.746C250.007 63.2367 249.669 64.554 248.993 65.698C248.335 66.8247 247.425 67.6913 246.263 68.298C245.119 68.9047 243.837 69.208 242.415 69.208ZM242.415 65.36C243.265 65.36 243.984 65.048 244.573 64.424C245.18 63.8 245.483 62.9073 245.483 61.746C245.483 60.5847 245.189 59.692 244.599 59.068C244.027 58.444 243.317 58.132 242.467 58.132C241.601 58.132 240.881 58.444 240.309 59.068C239.737 59.6747 239.451 60.5673 239.451 61.746C239.451 62.9073 239.729 63.8 240.283 64.424C240.855 65.048 241.566 65.36 242.415 65.36Z" fill="black"/>
<path d="M75.864 93.6V90.504H81.648V108H78.192V93.6H75.864ZM101.414 91.248V93.96H94.4301V98.256H99.7821V100.92H94.4301V108H91.0701V91.248H101.414ZM102.933 101.304C102.933 99.96 103.197 98.768 103.725 97.728C104.269 96.688 104.997 95.888 105.909 95.328C106.837 94.768 107.869 94.488 109.005 94.488C109.997 94.488 110.861 94.688 111.597 95.088C112.349 95.488 112.949 95.992 113.397 96.6V94.704H116.781V108H113.397V106.056C112.965 106.68 112.365 107.2 111.597 107.616C110.845 108.016 109.973 108.216 108.981 108.216C107.861 108.216 106.837 107.928 105.909 107.352C104.997 106.776 104.269 105.968 103.725 104.928C103.197 103.872 102.933 102.664 102.933 101.304ZM113.397 101.352C113.397 100.536 113.237 99.84 112.917 99.264C112.597 98.672 112.165 98.224 111.621 97.92C111.077 97.6 110.493 97.44 109.869 97.44C109.245 97.44 108.669 97.592 108.141 97.896C107.613 98.2 107.181 98.648 106.845 99.24C106.525 99.816 106.365 100.504 106.365 101.304C106.365 102.104 106.525 102.808 106.845 103.416C107.181 104.008 107.613 104.464 108.141 104.784C108.685 105.104 109.261 105.264 109.869 105.264C110.493 105.264 111.077 105.112 111.621 104.808C112.165 104.488 112.597 104.04 112.917 103.464C113.237 102.872 113.397 102.168 113.397 101.352ZM125.15 108.216C124.062 108.216 123.086 108.024 122.222 107.64C121.358 107.24 120.67 106.704 120.158 106.032C119.662 105.36 119.39 104.616 119.342 103.8H122.726C122.79 104.312 123.038 104.736 123.47 105.072C123.918 105.408 124.47 105.576 125.126 105.576C125.766 105.576 126.262 105.448 126.614 105.192C126.982 104.936 127.166 104.608 127.166 104.208C127.166 103.776 126.942 103.456 126.494 103.248C126.062 103.024 125.366 102.784 124.406 102.528C123.414 102.288 122.598 102.04 121.958 101.784C121.334 101.528 120.79 101.136 120.326 100.608C119.878 100.08 119.654 99.368 119.654 98.472C119.654 97.736 119.862 97.064 120.278 96.456C120.71 95.848 121.318 95.368 122.102 95.016C122.902 94.664 123.838 94.488 124.91 94.488C126.494 94.488 127.758 94.888 128.702 95.688C129.646 96.472 130.166 97.536 130.262 98.88H127.046C126.998 98.352 126.774 97.936 126.374 97.632C125.99 97.312 125.47 97.152 124.814 97.152C124.206 97.152 123.734 97.264 123.398 97.488C123.078 97.712 122.918 98.024 122.918 98.424C122.918 98.872 123.142 99.216 123.59 99.456C124.038 99.68 124.734 99.912 125.678 100.152C126.638 100.392 127.43 100.64 128.054 100.896C128.678 101.152 129.214 101.552 129.662 102.096C130.126 102.624 130.366 103.328 130.382 104.208C130.382 104.976 130.166 105.664 129.734 106.272C129.318 106.88 128.71 107.36 127.91 107.712C127.126 108.048 126.206 108.216 125.15 108.216ZM145.5 101.064C145.5 101.544 145.468 101.976 145.404 102.36H135.684C135.764 103.32 136.1 104.072 136.692 104.616C137.284 105.16 138.012 105.432 138.876 105.432C140.124 105.432 141.012 104.896 141.54 103.824H145.164C144.78 105.104 144.044 106.16 142.956 106.992C141.868 107.808 140.532 108.216 138.948 108.216C137.668 108.216 136.516 107.936 135.492 107.376C134.484 106.8 133.692 105.992 133.116 104.952C132.556 103.912 132.276 102.712 132.276 101.352C132.276 99.976 132.556 98.768 133.116 97.728C133.676 96.688 134.46 95.888 135.468 95.328C136.476 94.768 137.636 94.488 138.948 94.488C140.212 94.488 141.34 94.76 142.332 95.304C143.34 95.848 144.116 96.624 144.66 97.632C145.22 98.624 145.5 99.768 145.5 101.064ZM142.02 100.104C142.004 99.24 141.692 98.552 141.084 98.04C140.476 97.512 139.732 97.248 138.852 97.248C138.02 97.248 137.316 97.504 136.74 98.016C136.18 98.512 135.836 99.208 135.708 100.104H142.02ZM171.942 100.92H167.406V105.576H164.238V100.92H159.702V97.992H164.238V93.336H167.406V97.992H171.942V100.92ZM195.609 108H192.249L184.641 96.504V108H181.281V91.224H184.641L192.249 102.744V91.224H195.609V108ZM211.289 101.064C211.289 101.544 211.257 101.976 211.193 102.36H201.473C201.553 103.32 201.889 104.072 202.481 104.616C203.073 105.16 203.801 105.432 204.665 105.432C205.913 105.432 206.801 104.896 207.329 103.824H210.953C210.569 105.104 209.833 106.16 208.745 106.992C207.657 107.808 206.321 108.216 204.737 108.216C203.457 108.216 202.305 107.936 201.281 107.376C200.273 106.8 199.481 105.992 198.905 104.952C198.345 103.912 198.065 102.712 198.065 101.352C198.065 99.976 198.345 98.768 198.905 97.728C199.465 96.688 200.249 95.888 201.257 95.328C202.265 94.768 203.425 94.488 204.737 94.488C206.001 94.488 207.129 94.76 208.121 95.304C209.129 95.848 209.905 96.624 210.449 97.632C211.009 98.624 211.289 99.768 211.289 101.064ZM207.809 100.104C207.793 99.24 207.481 98.552 206.873 98.04C206.265 97.512 205.521 97.248 204.641 97.248C203.809 97.248 203.105 97.504 202.529 98.016C201.969 98.512 201.625 99.208 201.497 100.104H207.809ZM226.294 94.704V108H222.91V106.32C222.478 106.896 221.91 107.352 221.206 107.688C220.518 108.008 219.766 108.168 218.95 108.168C217.91 108.168 216.99 107.952 216.19 107.52C215.39 107.072 214.758 106.424 214.294 105.576C213.846 104.712 213.622 103.688 213.622 102.504V94.704H216.982V102.024C216.982 103.08 217.246 103.896 217.774 104.472C218.302 105.032 219.022 105.312 219.934 105.312C220.862 105.312 221.59 105.032 222.118 104.472C222.646 103.896 222.91 103.08 222.91 102.024V94.704H226.294ZM233.521 97.464V103.896C233.521 104.344 233.625 104.672 233.833 104.88C234.057 105.072 234.425 105.168 234.937 105.168H236.497V108H234.385C231.553 108 230.137 106.624 230.137 103.872V97.464H228.553V94.704H230.137V91.416H233.521V94.704H236.497V97.464H233.521ZM242.274 96.768C242.706 96.064 243.266 95.512 243.954 95.112C244.658 94.712 245.458 94.512 246.354 94.512V98.04H245.466C244.41 98.04 243.61 98.288 243.066 98.784C242.538 99.28 242.274 100.144 242.274 101.376V108H238.914V94.704H242.274V96.768ZM254.521 108.216C253.241 108.216 252.089 107.936 251.065 107.376C250.041 106.8 249.233 105.992 248.641 104.952C248.065 103.912 247.777 102.712 247.777 101.352C247.777 99.992 248.073 98.792 248.665 97.752C249.273 96.712 250.097 95.912 251.137 95.352C252.177 94.776 253.337 94.488 254.617 94.488C255.897 94.488 257.057 94.776 258.097 95.352C259.137 95.912 259.953 96.712 260.545 97.752C261.153 98.792 261.457 99.992 261.457 101.352C261.457 102.712 261.145 103.912 260.521 104.952C259.913 105.992 259.081 106.8 258.025 107.376C256.985 107.936 255.817 108.216 254.521 108.216ZM254.521 105.288C255.129 105.288 255.697 105.144 256.225 104.856C256.769 104.552 257.201 104.104 257.521 103.512C257.841 102.92 258.001 102.2 258.001 101.352C258.001 100.088 257.665 99.12 256.993 98.448C256.337 97.76 255.529 97.416 254.569 97.416C253.609 97.416 252.801 97.76 252.145 98.448C251.505 99.12 251.185 100.088 251.185 101.352C251.185 102.616 251.497 103.592 252.121 104.28C252.761 104.952 253.561 105.288 254.521 105.288Z" fill="black"/>
<circle cx="300" cy="10" r="10" fill="#B30000"/>
<circle cx="300" cy="10" r="5" fill="white"/>
</svg>
